<?xml version="1.0" encoding="utf-8"?>
<!-- Generator: Adobe Illustrator 20.0.0, SVG Export Plug-In . SVG Version: 6.00 Build 0)  -->
<svg version="1.1" id="Layer_1" xmlns="http://www.w3.org/2000/svg" xmlns:xlink="http://www.w3.org/1999/xlink" x="0px" y="0px"
	 viewBox="0 0 706 92.2" style="enable-background:new 0 0 706 92.2;" xml:space="preserve">
<style type="text/css">
	.st0{fill:#999999;}
	.st1{fill:#98a6ad;}
	.st2{fill-rule:evenodd;clip-rule:evenodd;fill:#F2F2F2;}
	.st3{fill-rule:evenodd;clip-rule:evenodd;fill:#808080;}
	.st4{fill-rule:evenodd;clip-rule:evenodd;}
	.st5{fill-rule:evenodd;clip-rule:evenodd;fill:#999999;}
</style>
<path class="st0" d="M189.7,76.2V32h6.3c1.1,0,1.9,0.2,2.3,0.6c0.4,0.4,0.7,1.1,0.9,2.1l0.6,5.4c1.6-2.7,3.4-4.9,5.6-6.5
	c2.1-1.6,4.5-2.4,7.2-2.4c2.2,0,4,0.5,5.4,1.5l-1.4,8c-0.1,0.5-0.3,0.9-0.6,1.1c-0.3,0.2-0.7,0.3-1.2,0.3c-0.4,0-1-0.1-1.8-0.3
	c-0.7-0.2-1.7-0.3-3-0.3c-2.2,0-4.1,0.6-5.7,1.8c-1.6,1.2-2.9,3-4,5.4v27.6H189.7z"/>
<path class="st0" d="M242.3,31.3c2.8,0,5.4,0.4,7.7,1.3c2.3,0.9,4.4,2.2,6.1,3.9c1.7,1.7,3,3.8,4,6.3c0.9,2.5,1.4,5.3,1.4,8.5
	c0,0.8,0,1.5-0.1,2c-0.1,0.5-0.2,0.9-0.4,1.3c-0.2,0.3-0.4,0.5-0.8,0.6c-0.3,0.1-0.7,0.2-1.2,0.2h-27.4c0.3,4.5,1.5,7.9,3.7,10
	c2.1,2.1,4.9,3.2,8.5,3.2c1.7,0,3.2-0.2,4.5-0.6c1.3-0.4,2.3-0.8,3.3-1.3c0.9-0.5,1.8-0.9,2.5-1.3c0.7-0.4,1.4-0.6,2-0.6
	c0.4,0,0.8,0.1,1.1,0.3c0.3,0.2,0.6,0.4,0.8,0.7l3.1,3.9c-1.2,1.4-2.5,2.5-4,3.5c-1.5,0.9-3,1.7-4.6,2.2c-1.6,0.6-3.2,1-4.9,1.2
	c-1.7,0.2-3.3,0.3-4.8,0.3c-3.1,0-5.9-0.5-8.6-1.5c-2.6-1-4.9-2.5-6.9-4.5c-2-2-3.5-4.5-4.6-7.4c-1.1-2.9-1.7-6.4-1.7-10.2
	c0-3,0.5-5.9,1.5-8.5c1-2.7,2.4-5,4.2-6.9c1.8-2,4.1-3.5,6.7-4.7C236.1,31.8,239,31.3,242.3,31.3z M242.6,38.9
	c-3.1,0-5.5,0.9-7.3,2.6c-1.8,1.8-2.9,4.2-3.4,7.5h20c0-1.4-0.2-2.7-0.6-3.9c-0.4-1.2-0.9-2.3-1.7-3.2c-0.8-0.9-1.8-1.6-2.9-2.2
	C245.5,39.2,244.1,38.9,242.6,38.9z"/>
<path class="st0" d="M300.5,76.2c-1.4,0-2.3-0.6-2.7-1.9l-0.9-4.3c-0.9,1-1.9,2-2.9,2.8c-1,0.8-2.1,1.6-3.3,2.2
	c-1.2,0.6-2.4,1.1-3.8,1.4c-1.3,0.3-2.8,0.5-4.3,0.5c-2.4,0-4.6-0.5-6.6-1.5c-2-1-3.7-2.5-5.2-4.4c-1.5-1.9-2.6-4.3-3.4-7.1
	c-0.8-2.8-1.2-6-1.2-9.7c0-3.3,0.4-6.3,1.3-9.1c0.9-2.8,2.2-5.3,3.8-7.3c1.7-2.1,3.7-3.7,6-4.9c2.3-1.2,4.9-1.7,7.9-1.7
	c2.5,0,4.6,0.4,6.3,1.2c1.8,0.8,3.3,1.8,4.7,3.2V12.1H307v64.1H300.5z M286.3,68.4c2.2,0,4.1-0.5,5.7-1.4c1.6-0.9,3-2.2,4.4-3.9
	V43.3c-1.2-1.5-2.5-2.5-3.9-3.1s-3-0.9-4.6-0.9c-1.6,0-3.1,0.3-4.4,0.9c-1.3,0.6-2.4,1.5-3.3,2.7c-0.9,1.2-1.6,2.8-2.1,4.7
	c-0.5,1.9-0.7,4.1-0.7,6.7c0,2.6,0.2,4.8,0.6,6.6c0.4,1.8,1,3.3,1.8,4.4c0.8,1.1,1.7,2,2.8,2.5C283.6,68.2,284.9,68.4,286.3,68.4z"
	/>
<path class="st0" d="M348.7,41.3c-0.3,0.4-0.6,0.7-0.9,0.9c-0.3,0.2-0.7,0.3-1.3,0.3c-0.5,0-1.1-0.2-1.6-0.5
	c-0.5-0.3-1.1-0.7-1.9-1.1c-0.7-0.4-1.6-0.8-2.6-1.1c-1-0.3-2.2-0.5-3.7-0.5c-1.9,0-3.5,0.3-4.9,1c-1.4,0.7-2.6,1.6-3.5,2.9
	c-0.9,1.3-1.6,2.8-2.1,4.6c-0.5,1.8-0.7,3.8-0.7,6.1c0,2.4,0.3,4.5,0.8,6.3c0.5,1.8,1.2,3.4,2.2,4.6c0.9,1.3,2.1,2.2,3.5,2.8
	c1.4,0.6,2.9,1,4.6,1c1.7,0,3.1-0.2,4.1-0.6c1-0.4,1.9-0.9,2.7-1.4c0.7-0.5,1.3-1,1.9-1.4c0.5-0.4,1.1-0.6,1.8-0.6
	c0.9,0,1.5,0.3,1.9,1l3.1,3.9c-1.2,1.4-2.5,2.5-3.8,3.5c-1.4,0.9-2.8,1.7-4.3,2.2c-1.5,0.6-3,1-4.6,1.2c-1.6,0.2-3.1,0.3-4.7,0.3
	c-2.7,0-5.3-0.5-7.7-1.5c-2.4-1-4.5-2.5-6.3-4.5c-1.8-2-3.2-4.4-4.3-7.2c-1.1-2.8-1.6-6.1-1.6-9.7c0-3.2,0.5-6.3,1.4-9
	c0.9-2.8,2.3-5.2,4.1-7.2c1.8-2,4.1-3.6,6.7-4.8c2.7-1.1,5.8-1.7,9.2-1.7c3.3,0,6.2,0.5,8.7,1.6c2.5,1.1,4.7,2.6,6.7,4.6L348.7,41.3
	z"/>
<path class="st0" d="M357.9,76.2V32h6.3c1.1,0,1.9,0.2,2.3,0.6c0.4,0.4,0.7,1.1,0.9,2.1L368,40c1.6-2.7,3.4-4.9,5.6-6.5
	c2.1-1.6,4.5-2.4,7.2-2.4c2.2,0,4,0.5,5.4,1.5l-1.4,8c-0.1,0.5-0.3,0.9-0.6,1.1c-0.3,0.2-0.7,0.3-1.2,0.3c-0.4,0-1-0.1-1.8-0.3
	c-0.7-0.2-1.7-0.3-3-0.3c-2.2,0-4.1,0.6-5.7,1.8c-1.6,1.2-2.9,3-4,5.4v27.6H357.9z"/>
<path class="st0" d="M411.2,31.3c3.3,0,6.3,0.5,9,1.6c2.7,1.1,5,2.6,6.9,4.5c1.9,2,3.4,4.3,4.4,7.2c1,2.8,1.6,6,1.6,9.4
	c0,3.5-0.5,6.7-1.6,9.5c-1,2.8-2.5,5.2-4.4,7.2c-1.9,2-4.2,3.5-6.9,4.6c-2.7,1.1-5.7,1.6-9,1.6c-3.3,0-6.3-0.5-9-1.6
	c-2.7-1.1-5-2.6-6.9-4.6c-1.9-2-3.4-4.4-4.4-7.2c-1.1-2.8-1.6-6-1.6-9.5c0-3.5,0.5-6.6,1.6-9.4c1-2.8,2.5-5.2,4.4-7.2
	c1.9-2,4.2-3.5,6.9-4.5C404.9,31.8,407.9,31.3,411.2,31.3z M411.2,68.7c3.7,0,6.4-1.2,8.2-3.7c1.8-2.5,2.7-6.1,2.7-10.9
	c0-4.8-0.9-8.4-2.7-10.9c-1.8-2.5-4.5-3.8-8.2-3.8c-3.7,0-6.5,1.3-8.3,3.8c-1.8,2.5-2.7,6.1-2.7,10.9c0,4.7,0.9,8.4,2.7,10.9
	C404.7,67.4,407.5,68.7,411.2,68.7z"/>
<path class="st0" d="M435.1,32h8.5c0.8,0,1.5,0.2,2,0.6c0.5,0.4,0.9,0.8,1,1.4l6.3,23.6c0.3,1.3,0.6,2.6,0.8,3.8
	c0.2,1.2,0.4,2.5,0.6,3.7c0.3-1.2,0.7-2.5,1-3.7c0.4-1.2,0.7-2.5,1.1-3.8l7.3-23.7c0.2-0.6,0.5-1,1-1.4c0.5-0.4,1.1-0.6,1.8-0.6h4.7
	c0.8,0,1.4,0.2,1.9,0.6c0.5,0.4,0.9,0.8,1,1.4l7.2,24.2c0.4,1.2,0.7,2.4,1,3.6c0.3,1.2,0.6,2.3,0.9,3.5c0.2-1.2,0.4-2.5,0.7-3.7
	c0.2-1.2,0.6-2.5,0.9-3.8l6.6-23.6c0.1-0.6,0.5-1,1-1.4c0.5-0.4,1.2-0.6,1.9-0.6h8.1l-14,44.3h-8.6c-0.9,0-1.6-0.6-2-1.9l-8-25.6
	c-0.3-0.8-0.5-1.7-0.7-2.5c-0.2-0.8-0.4-1.7-0.5-2.5c-0.2,0.9-0.4,1.7-0.6,2.6c-0.2,0.8-0.4,1.7-0.7,2.6l-8.1,25.5
	c-0.4,1.3-1.2,1.9-2.3,1.9h-8.2L435.1,32z"/>
<path class="st1" d="M539.7,76.2c-0.7,0-1.1-0.4-1.2-1.1l-0.4-6.8c-1.9,2.6-4.1,4.6-6.7,6.2c-2.5,1.5-5.4,2.3-8.6,2.3
	c-5.3,0-9.4-1.8-12.3-5.5c-3-3.7-4.4-9.1-4.4-16.4c0-3.1,0.4-6.1,1.2-8.8c0.8-2.7,2-5.1,3.6-7.1c1.6-2,3.6-3.6,5.9-4.7
	c2.3-1.1,5-1.7,8-1.7c2.9,0,5.4,0.5,7.6,1.6c2.1,1.1,4,2.7,5.5,4.7V13.4h4.1v62.8H539.7z M523.9,73.5c2.9,0,5.4-0.7,7.7-2.2
	c2.3-1.5,4.4-3.5,6.2-6.1V42.5c-1.7-2.4-3.5-4.2-5.5-5.2c-2-1-4.3-1.5-6.8-1.5s-4.8,0.5-6.7,1.4c-1.9,0.9-3.5,2.2-4.8,3.9
	c-1.3,1.7-2.2,3.7-2.9,6c-0.6,2.3-1,4.9-1,7.7c0,6.4,1.2,11.1,3.5,14.1C516.1,72,519.5,73.5,523.9,73.5z"/>
<path class="st1" d="M561.3,18.5c0,0.5-0.1,1-0.3,1.4c-0.2,0.4-0.5,0.8-0.8,1.2c-0.3,0.3-0.7,0.6-1.2,0.8c-0.5,0.2-0.9,0.3-1.5,0.3
	s-1-0.1-1.5-0.3c-0.5-0.2-0.9-0.5-1.2-0.8c-0.3-0.3-0.6-0.7-0.8-1.2c-0.2-0.4-0.3-0.9-0.3-1.4c0-0.5,0.1-1,0.3-1.5
	c0.2-0.5,0.5-0.9,0.8-1.2c0.3-0.3,0.7-0.6,1.2-0.8c0.5-0.2,0.9-0.3,1.5-0.3s1,0.1,1.5,0.3c0.5,0.2,0.9,0.5,1.2,0.8
	c0.3,0.3,0.6,0.8,0.8,1.2C561.2,17.5,561.3,18,561.3,18.5z M559.5,33.3v42.9h-4.1V33.3H559.5z"/>
<path class="st1" d="M586.7,32.6c1.9,0,3.6,0.2,5.2,0.7c1.6,0.5,3,1.1,4.3,1.9h11v1.4c0,0.7-0.4,1.1-1.2,1.2l-6.5,0.5
	c0.8,1.1,1.4,2.3,1.9,3.7c0.4,1.4,0.6,2.8,0.6,4.4c0,2.1-0.4,3.9-1.1,5.6c-0.7,1.7-1.8,3.1-3.1,4.3c-1.3,1.2-2.9,2.1-4.8,2.8
	c-1.9,0.7-3.9,1-6.2,1c-2.5,0-4.7-0.4-6.7-1.1c-1.2,0.7-2.2,1.5-2.8,2.5c-0.7,0.9-1,1.9-1,2.8c0,1.2,0.4,2.2,1.3,2.8
	c0.9,0.7,2,1.1,3.4,1.4c1.4,0.3,3,0.5,4.9,0.6c1.8,0.1,3.7,0.2,5.6,0.3c1.9,0.1,3.7,0.3,5.6,0.5s3.5,0.7,4.9,1.4
	c1.4,0.6,2.6,1.6,3.4,2.7c0.9,1.2,1.3,2.7,1.3,4.6c0,1.8-0.4,3.5-1.3,5.1c-0.9,1.6-2.2,3.1-3.9,4.4c-1.7,1.3-3.7,2.3-6.1,3
	c-2.4,0.8-5.1,1.1-8,1.1c-3,0-5.7-0.3-7.9-0.9c-2.3-0.6-4.2-1.5-5.7-2.5c-1.5-1.1-2.7-2.3-3.5-3.6c-0.8-1.4-1.2-2.8-1.2-4.4
	c0-2.3,0.7-4.2,2.2-5.9c1.5-1.6,3.6-2.9,6.2-3.8c-1.4-0.5-2.6-1.2-3.4-2.1c-0.8-0.9-1.3-2.2-1.3-3.8c0-0.6,0.1-1.2,0.3-1.9
	c0.2-0.7,0.6-1.3,1-2c0.5-0.6,1-1.3,1.7-1.8c0.6-0.6,1.4-1.1,2.3-1.6c-2-1.2-3.6-2.7-4.8-4.7c-1.1-2-1.7-4.2-1.7-6.9
	c0-2.1,0.4-3.9,1.1-5.6c0.7-1.7,1.8-3.1,3.1-4.3c1.3-1.2,3-2.1,4.9-2.8C582.3,32.9,584.4,32.6,586.7,32.6z M602.6,79.1
	c0-1.4-0.4-2.4-1.1-3.3c-0.7-0.8-1.6-1.5-2.8-1.9c-1.2-0.5-2.5-0.8-4.1-1c-1.5-0.2-3.1-0.3-4.8-0.4c-1.7-0.1-3.4-0.2-5.1-0.3
	c-1.7-0.1-3.3-0.3-4.7-0.5c-1.1,0.4-2.1,0.9-3,1.5c-0.9,0.6-1.7,1.2-2.4,1.9c-0.7,0.7-1.2,1.5-1.6,2.3c-0.4,0.8-0.6,1.8-0.6,2.8
	c0,1.3,0.3,2.4,1,3.5c0.6,1.1,1.6,2,2.8,2.8c1.3,0.8,2.8,1.4,4.6,1.9s3.9,0.7,6.3,0.7c2.2,0,4.2-0.2,6.1-0.7
	c1.9-0.5,3.5-1.2,4.9-2.1c1.4-0.9,2.5-2,3.3-3.2C602.2,81.9,602.6,80.6,602.6,79.1z M586.7,57.2c1.8,0,3.5-0.3,4.9-0.8
	c1.4-0.5,2.6-1.3,3.6-2.2c1-0.9,1.7-2.1,2.2-3.4c0.5-1.3,0.8-2.8,0.8-4.4c0-1.6-0.3-3.1-0.8-4.4c-0.5-1.3-1.3-2.5-2.3-3.4
	c-1-0.9-2.2-1.7-3.6-2.2c-1.4-0.5-3-0.8-4.9-0.8s-3.4,0.3-4.9,0.8c-1.4,0.5-2.7,1.3-3.6,2.2c-1,0.9-1.7,2.1-2.3,3.4
	c-0.5,1.3-0.8,2.8-0.8,4.4c0,1.6,0.3,3.1,0.8,4.4c0.5,1.3,1.3,2.5,2.3,3.4c1,0.9,2.2,1.7,3.6,2.2C583.2,57,584.9,57.2,586.7,57.2z"
	/>
<path class="st1" d="M621,18.5c0,0.5-0.1,1-0.3,1.4c-0.2,0.4-0.5,0.8-0.8,1.2c-0.3,0.3-0.7,0.6-1.2,0.8c-0.5,0.2-0.9,0.3-1.5,0.3
	c-0.5,0-1-0.1-1.5-0.3c-0.5-0.2-0.9-0.5-1.2-0.8c-0.3-0.3-0.6-0.7-0.8-1.2c-0.2-0.4-0.3-0.9-0.3-1.4c0-0.5,0.1-1,0.3-1.5
	c0.2-0.5,0.5-0.9,0.8-1.2c0.3-0.3,0.7-0.6,1.2-0.8c0.5-0.2,0.9-0.3,1.5-0.3c0.5,0,1,0.1,1.5,0.3c0.5,0.2,0.9,0.5,1.2,0.8
	c0.3,0.3,0.6,0.8,0.8,1.2C620.9,17.5,621,18,621,18.5z M619.2,33.3v42.9h-4.1V33.3H619.2z"/>
<path class="st1" d="M643.9,76.9c-2.9,0-5.2-0.8-6.8-2.4c-1.6-1.6-2.4-4.1-2.4-7.5V37.7h-6.2c-0.3,0-0.6-0.1-0.8-0.3
	c-0.2-0.2-0.3-0.4-0.3-0.7v-1.6l7.3-0.5l1-15.4c0-0.3,0.1-0.5,0.3-0.7c0.2-0.2,0.4-0.3,0.7-0.3h1.9v16.4h13.5v3.1h-13.5v29.1
	c0,1.2,0.2,2.2,0.5,3c0.3,0.8,0.7,1.5,1.3,2.1c0.5,0.5,1.2,0.9,1.9,1.2c0.7,0.3,1.5,0.4,2.3,0.4c1,0,1.9-0.2,2.7-0.5
	c0.7-0.3,1.4-0.6,1.9-1c0.5-0.4,1-0.7,1.3-1c0.3-0.3,0.6-0.5,0.8-0.5c0.2,0,0.5,0.1,0.7,0.4l1.1,1.8c-1.1,1.2-2.5,2.2-4.2,2.9
	S645.7,76.9,643.9,76.9z"/>
<path class="st1" d="M688.2,76.2c-0.9,0-1.4-0.4-1.6-1.2l-0.6-5.5c-1.2,1.2-2.4,2.2-3.5,3.1c-1.2,0.9-2.4,1.7-3.6,2.3
	c-1.3,0.6-2.6,1.1-4.1,1.4c-1.5,0.3-3.1,0.5-4.8,0.5c-1.5,0-2.9-0.2-4.3-0.6c-1.4-0.4-2.6-1.1-3.7-2c-1.1-0.9-1.9-2-2.6-3.4
	c-0.6-1.4-1-3.1-1-5c0-1.8,0.5-3.5,1.6-5c1-1.6,2.7-2.9,4.9-4.1c2.2-1.2,5-2.1,8.5-2.8c3.5-0.7,7.6-1.1,12.5-1.2v-4.5
	c0-4-0.9-7-2.6-9.2c-1.7-2.1-4.3-3.2-7.6-3.2c-2.1,0-3.8,0.3-5.3,0.9c-1.5,0.6-2.7,1.2-3.7,1.9c-1,0.7-1.8,1.3-2.5,1.9
	c-0.6,0.6-1.2,0.9-1.6,0.9c-0.6,0-1-0.3-1.3-0.8l-0.7-1.3c2.2-2.2,4.6-3.9,7.1-5.1c2.5-1.1,5.3-1.7,8.4-1.7c2.3,0,4.3,0.4,6,1.1
	c1.7,0.7,3.2,1.8,4.3,3.1c1.1,1.4,2,3,2.6,5c0.6,1.9,0.9,4.1,0.9,6.5v28H688.2z M671,73.9c1.7,0,3.2-0.2,4.6-0.5
	c1.4-0.4,2.7-0.9,3.9-1.5c1.2-0.6,2.3-1.4,3.3-2.3c1-0.9,2.1-1.9,3.1-2.9V55.5c-4.1,0.1-7.6,0.4-10.6,0.9c-2.9,0.5-5.4,1.2-7.3,2
	c-1.9,0.9-3.3,1.9-4.2,3.1c-0.9,1.2-1.4,2.6-1.4,4.1c0,1.4,0.2,2.7,0.7,3.7c0.5,1.1,1.1,1.9,1.9,2.6c0.8,0.7,1.7,1.2,2.7,1.5
	C668.8,73.8,669.9,73.9,671,73.9z"/>
<path class="st1" d="M706,13.4v62.8h-4.1V13.4H706z"/>
<ellipse class="st2" cx="75.8" cy="13.1" rx="4.7" ry="6"/>
<circle class="st3" cx="77.1" cy="14.6" r="2.7"/>
<circle class="st4" cx="77.1" cy="14.7" r="1"/>
<path class="st5" d="M171.9,36.3c-2.7,1.1-5.4,2.4-8.3,3.3c-4.6,1.4-9.3,2.6-14,3.8c-2.7,0.7-4.7,2.1-6.3,4.3c-2,2.8-4,5.6-7.1,7.3
	c-0.3,0.2-0.4,0.8-0.6,1.2c-0.1,0.2,0,0.4,0.1,0.6c2.4,5.7,0.6,11.2-0.8,16.7c-0.2,0.7-0.3,1.5-0.4,2.2c-0.3,2.2,0.3,2.7,2.4,2.4
	c1.6-0.2,3.3-1.1,4.9,0.1c0.8,0.6,1.6,1.5,2.1,2.5c-3-1.8-6,0.5-8.9-0.1c-0.4-0.1-1.2,0.6-1.4,1.2c-0.5,1.2-0.8,2.6-1.3,3.9
	c-0.7,1.6-1.5,3-2.3,4.6c-0.3,0.7-0.6,1.3-1,2.1c-0.9-1-1.5-1.9-0.7-3.3c0.9-1.8,1.7-3.7,2.5-5.5c-0.1-0.2-0.3-0.3-0.4-0.5
	c-3.3,2-6.6,4.1-9.8,6.1c-0.4-1.7,0.2-3.2,2-4.2c1.5-0.8,3-1.6,4.5-2.3c0.1,0,0.1-0.2,0.4-0.7c-3.1,0.8-5.8,1.5-8.4,2.2
	c-0.1-2.8,0.8-3.7,4-3.7c2.1-0.1,4.2-0.2,6.3-0.4c2-0.2,3.1-1.4,3.4-3.4c0.5-3.9,0.8-7.8,1.5-11.7c0.5-2.8,0.5-5.5-0.4-8.2
	c-2.7,0.5-5.4,1.2-8,1.4c-2.7,0.2-5.5,0.1-7.8,0.1c-0.7,2.6-1.3,5-1.8,7.3c-0.5,2.1-1,4.1-1.3,6.2c-0.3,1.7,0.3,2.2,2.1,2.1
	c1.8-0.1,3.7-1.3,5.4,0.1c0.8,0.6,1.4,1.4,1.9,2.4c-3.1-1.7-6.1,0.6-9.1-0.1c-0.3-0.1-0.9,0.6-1.1,1.1c-0.5,1.2-0.7,2.5-1.2,3.7
	c-0.7,1.7-1.6,3.3-2.4,4.9c-0.3,0.6-0.5,1.2-0.8,1.9c-0.9-0.9-1.5-1.8-0.8-3.2c0.9-1.8,1.7-3.7,2.5-5.6c-0.1-0.2-0.3-0.3-0.4-0.5
	c-3.3,2-6.6,4-9.8,6c-0.4-1.9,0.1-3.2,2.1-4.2c1.5-0.8,3-1.5,4.5-2.3c-0.1-0.2-0.1-0.4-0.2-0.6c-2.7,0.7-5.5,1.4-8.1,2.1
	c0.1-3.1,0.8-3.7,4.3-3.8c1.9,0,3.7-0.2,5.6-0.3c2.3-0.2,3.6-1.6,3.9-3.8c0.4-2.8,0.8-5.5,1.1-8.3c0.2-1.7,0.4-3.4,0.6-5.4
	c-1.1-0.2-2.4-0.6-3.7-0.8c-9.3-1.5-16.2-6.6-21.9-13.8c-1.5-1.9-2.2-4.1-2.2-6.6c0-2.2-0.1-4.4-0.4-6.5c-0.5-3.6-2-5-5.6-4.9
	c-3.4,0.1-6.8,0.6-10.2,0.9c-0.7,0.1-1.5,0.2-2.2,0.3c-0.4-3.8,3.7-5,4.4-8.1c2,0.6,5.4-1.2,5.9-9C79,8.8,78.4,8.2,78,8
	c-1.8-1-3.6-0.5-5.3,0.6c1.6-3.3,4.1-3.2,6.8-0.7c3.8-4.4,8.7-6.7,14.3-7.7c2.3-0.4,4.5-0.2,6.5,0.9c0.4,0.2,0.9,0.4,1.4,0.5
	c5.1,0.6,9.1,4.8,9.1,10.2c-0.7-1.4-1.1-2.7-1.9-3.8C104.8,2,96.5,2.6,93,9.2c-2.1,4.1-2.2,8.3,0,12.4c1.7,3.3,4.4,5.4,8.3,5.4
	c3.8,0,6.5-2,8.2-5.2c0.8-1.5,1.5-1.7,3-1.4c6.8,1.4,13.7,1.9,20.1,4.7c4.7,2.1,9.3,4.4,14,6.5c0.9,0.4,1.9,0.6,2.8,0.6
	c5.6,0,11.3-1.2,16.9,0.7c1.9,0.6,3.7,1.5,5.5,2.2C171.9,35.5,171.9,35.9,171.9,36.3z"/>
<ellipse class="st2" cx="101.6" cy="15.4" rx="10" ry="11.7"/>
<circle class="st3" cx="102.7" cy="16.5" r="5"/>
<circle class="st4" cx="102.7" cy="16.5" r="1.8"/>
<g>
	<path class="st1" d="M4.8,31.8h8.6c4,0,6.9,0.6,8.7,1.8c1.8,1.2,2.7,3,2.7,5.5c0,1.7-0.4,3.1-1.3,4.2s-2.1,1.8-3.8,2.1v0.2
		c2,0.4,3.5,1.1,4.5,2.3c1,1.1,1.4,2.7,1.4,4.6c0,2.6-0.9,4.7-2.7,6.1c-1.8,1.5-4.4,2.2-7.6,2.2H4.8V31.8z M9.6,43.8h4.6
		c2,0,3.4-0.3,4.4-0.9c0.9-0.6,1.4-1.7,1.4-3.2c0-1.4-0.5-2.4-1.5-3s-2.6-0.9-4.7-0.9H9.6V43.8z M9.6,47.7v9.2h5.1
		c2,0,3.5-0.4,4.5-1.1c1-0.8,1.5-2,1.5-3.6c0-1.5-0.5-2.6-1.6-3.4s-2.6-1.1-4.7-1.1H9.6z"/>
	<path class="st1" d="M27.9,38.9H33l4.5,12.5c0.7,1.8,1.1,3.4,1.4,5H39c0.1-0.7,0.3-1.6,0.7-2.7c0.3-1,2-6,5.1-14.8h5.1l-9.4,24.9
		c-1.7,4.6-4.6,6.9-8.6,6.9c-1,0-2-0.1-3-0.3v-3.7c0.7,0.2,1.5,0.2,2.4,0.2c2.3,0,3.8-1.3,4.8-3.9l0.8-2.1L27.9,38.9z"/>
</g>
</svg>
